<mxfile host="app.diagrams.net" modified="2024-04-17T15:29:11.521Z" agent="Mozilla/5.0 (Windows NT 10.0; Win64; x64) AppleWebKit/537.36 (KHTML, like Gecko) Chrome/123.0.0.0 Safari/537.36" etag="mk9zvz0fdGX1XvPx8LYB" version="24.2.5" type="device">
  <diagram name="Page-1" id="OmwOxIG5QRkP2aqQcF28">
    <mxGraphModel dx="2390" dy="1300" grid="1" gridSize="10" guides="1" tooltips="1" connect="1" arrows="1" fold="1" page="1" pageScale="1" pageWidth="827" pageHeight="1169" math="0" shadow="0">
      <root>
        <mxCell id="0" />
        <mxCell id="1" parent="0" />
        <mxCell id="6z2ByxE4KpLMUv-SJOOG-1" value="J&#39;arrive sur l&#39;interface web" style="rounded=1;whiteSpace=wrap;html=1;" parent="1" vertex="1">
          <mxGeometry x="360" y="170" width="120" height="60" as="geometry" />
        </mxCell>
        <mxCell id="6z2ByxE4KpLMUv-SJOOG-2" value="" style="endArrow=classic;html=1;rounded=0;exitX=0.5;exitY=1;exitDx=0;exitDy=0;entryX=0.5;entryY=0;entryDx=0;entryDy=0;" parent="1" source="6z2ByxE4KpLMUv-SJOOG-1" target="6z2ByxE4KpLMUv-SJOOG-3" edge="1">
          <mxGeometry width="50" height="50" relative="1" as="geometry">
            <mxPoint x="420" y="540" as="sourcePoint" />
            <mxPoint x="420" y="280" as="targetPoint" />
          </mxGeometry>
        </mxCell>
        <mxCell id="6z2ByxE4KpLMUv-SJOOG-3" value="Lorsqu&#39;on&amp;nbsp;saisis un texte dans l&#39;input de recherche principale" style="rounded=1;whiteSpace=wrap;html=1;" parent="1" vertex="1">
          <mxGeometry x="230" y="300" width="120" height="60" as="geometry" />
        </mxCell>
        <mxCell id="6z2ByxE4KpLMUv-SJOOG-5" value="" style="endArrow=classic;html=1;rounded=0;exitX=0.5;exitY=1;exitDx=0;exitDy=0;entryX=0.5;entryY=0;entryDx=0;entryDy=0;" parent="1" source="6z2ByxE4KpLMUv-SJOOG-1" edge="1">
          <mxGeometry width="50" height="50" relative="1" as="geometry">
            <mxPoint x="670" y="230" as="sourcePoint" />
            <mxPoint x="540" y="300" as="targetPoint" />
          </mxGeometry>
        </mxCell>
        <mxCell id="6z2ByxE4KpLMUv-SJOOG-7" value="" style="endArrow=classic;startArrow=classic;html=1;rounded=0;entryX=0;entryY=0.5;entryDx=0;entryDy=0;exitX=1;exitY=0.5;exitDx=0;exitDy=0;exitPerimeter=0;" parent="1" source="6z2ByxE4KpLMUv-SJOOG-3" edge="1">
          <mxGeometry width="50" height="50" relative="1" as="geometry">
            <mxPoint x="360" y="330" as="sourcePoint" />
            <mxPoint x="480" y="330" as="targetPoint" />
          </mxGeometry>
        </mxCell>
        <mxCell id="6z2ByxE4KpLMUv-SJOOG-11" value="Ecoute de l&#39;évènement Input&amp;nbsp;" style="rounded=1;whiteSpace=wrap;html=1;" parent="1" vertex="1">
          <mxGeometry x="230" y="430" width="120" height="60" as="geometry" />
        </mxCell>
        <mxCell id="6z2ByxE4KpLMUv-SJOOG-12" value="" style="endArrow=classic;html=1;rounded=0;exitX=0.5;exitY=1;exitDx=0;exitDy=0;entryX=0.5;entryY=0;entryDx=0;entryDy=0;" parent="1" source="6z2ByxE4KpLMUv-SJOOG-3" target="6z2ByxE4KpLMUv-SJOOG-11" edge="1">
          <mxGeometry width="50" height="50" relative="1" as="geometry">
            <mxPoint x="420" y="400" as="sourcePoint" />
            <mxPoint x="470" y="350" as="targetPoint" />
          </mxGeometry>
        </mxCell>
        <mxCell id="6z2ByxE4KpLMUv-SJOOG-13" value="" style="endArrow=classic;html=1;rounded=0;exitX=0.5;exitY=1;exitDx=0;exitDy=0;entryX=0.5;entryY=0;entryDx=0;entryDy=0;" parent="1" source="6z2ByxE4KpLMUv-SJOOG-31" target="6z2ByxE4KpLMUv-SJOOG-32" edge="1">
          <mxGeometry width="50" height="50" relative="1" as="geometry">
            <mxPoint x="546.96" y="361.02" as="sourcePoint" />
            <mxPoint x="520" y="410" as="targetPoint" />
          </mxGeometry>
        </mxCell>
        <mxCell id="6z2ByxE4KpLMUv-SJOOG-15" value="J&#39;appelle le service de recherche (SearchService)" style="shape=process;whiteSpace=wrap;html=1;backgroundOutline=1;" parent="1" vertex="1">
          <mxGeometry x="360" y="540" width="120" height="60" as="geometry" />
        </mxCell>
        <mxCell id="6z2ByxE4KpLMUv-SJOOG-16" value="" style="endArrow=classic;html=1;rounded=0;entryX=0.426;entryY=0.003;entryDx=0;entryDy=0;exitX=1;exitY=0.5;exitDx=0;exitDy=0;entryPerimeter=0;" parent="1" source="6z2ByxE4KpLMUv-SJOOG-11" target="6z2ByxE4KpLMUv-SJOOG-15" edge="1">
          <mxGeometry width="50" height="50" relative="1" as="geometry">
            <mxPoint x="610" y="470" as="sourcePoint" />
            <mxPoint x="660" y="420" as="targetPoint" />
          </mxGeometry>
        </mxCell>
        <mxCell id="6z2ByxE4KpLMUv-SJOOG-17" value="Je récupère un résultat (liste des recettes + filtres sélectionnées" style="rounded=1;whiteSpace=wrap;html=1;" parent="1" vertex="1">
          <mxGeometry x="360" y="650" width="120" height="60" as="geometry" />
        </mxCell>
        <mxCell id="6z2ByxE4KpLMUv-SJOOG-18" value="" style="endArrow=classic;html=1;rounded=0;entryX=0.5;entryY=0;entryDx=0;entryDy=0;exitX=0.5;exitY=1;exitDx=0;exitDy=0;" parent="1" source="6z2ByxE4KpLMUv-SJOOG-15" target="6z2ByxE4KpLMUv-SJOOG-17" edge="1">
          <mxGeometry width="50" height="50" relative="1" as="geometry">
            <mxPoint x="430" y="500" as="sourcePoint" />
            <mxPoint x="430" y="550" as="targetPoint" />
          </mxGeometry>
        </mxCell>
        <mxCell id="6z2ByxE4KpLMUv-SJOOG-20" value="Je génère la liste des recettes" style="ellipse;whiteSpace=wrap;html=1;" parent="1" vertex="1">
          <mxGeometry x="185" y="750" width="120" height="80" as="geometry" />
        </mxCell>
        <mxCell id="6z2ByxE4KpLMUv-SJOOG-21" value="Je retire les filtres présent dans les tags" style="ellipse;whiteSpace=wrap;html=1;" parent="1" vertex="1">
          <mxGeometry x="535" y="750" width="120" height="80" as="geometry" />
        </mxCell>
        <mxCell id="6z2ByxE4KpLMUv-SJOOG-22" value="J&#39;appelle la card factory en lui passant en paramètre le résultat des recettes&amp;nbsp;" style="rounded=1;whiteSpace=wrap;html=1;" parent="1" vertex="1">
          <mxGeometry x="180" y="650" width="130" height="60" as="geometry" />
        </mxCell>
        <mxCell id="6z2ByxE4KpLMUv-SJOOG-23" value="J&#39;appelle l&#39;option factory en lui passant en paramètre le filtre Dispo&amp;nbsp;" style="rounded=1;whiteSpace=wrap;html=1;" parent="1" vertex="1">
          <mxGeometry x="530" y="650" width="130" height="60" as="geometry" />
        </mxCell>
        <mxCell id="6z2ByxE4KpLMUv-SJOOG-24" value="" style="endArrow=classic;startArrow=classic;html=1;rounded=0;exitX=1;exitY=0.5;exitDx=0;exitDy=0;entryX=0;entryY=0.5;entryDx=0;entryDy=0;" parent="1" source="6z2ByxE4KpLMUv-SJOOG-22" target="6z2ByxE4KpLMUv-SJOOG-17" edge="1">
          <mxGeometry width="50" height="50" relative="1" as="geometry">
            <mxPoint x="540" y="640" as="sourcePoint" />
            <mxPoint x="590" y="590" as="targetPoint" />
          </mxGeometry>
        </mxCell>
        <mxCell id="6z2ByxE4KpLMUv-SJOOG-25" value="" style="endArrow=classic;startArrow=classic;html=1;rounded=0;exitX=1;exitY=0.5;exitDx=0;exitDy=0;entryX=0;entryY=0.5;entryDx=0;entryDy=0;" parent="1" edge="1">
          <mxGeometry width="50" height="50" relative="1" as="geometry">
            <mxPoint x="480" y="679.71" as="sourcePoint" />
            <mxPoint x="530" y="679.71" as="targetPoint" />
          </mxGeometry>
        </mxCell>
        <mxCell id="6z2ByxE4KpLMUv-SJOOG-28" value="" style="endArrow=classic;html=1;rounded=0;entryX=0.5;entryY=0;entryDx=0;entryDy=0;exitX=0.5;exitY=1;exitDx=0;exitDy=0;" parent="1" source="6z2ByxE4KpLMUv-SJOOG-22" target="6z2ByxE4KpLMUv-SJOOG-20" edge="1">
          <mxGeometry width="50" height="50" relative="1" as="geometry">
            <mxPoint x="520" y="560" as="sourcePoint" />
            <mxPoint x="570" y="510" as="targetPoint" />
          </mxGeometry>
        </mxCell>
        <mxCell id="6z2ByxE4KpLMUv-SJOOG-29" value="" style="endArrow=classic;html=1;rounded=0;entryX=0.5;entryY=0;entryDx=0;entryDy=0;exitX=0.5;exitY=1;exitDx=0;exitDy=0;" parent="1" edge="1">
          <mxGeometry width="50" height="50" relative="1" as="geometry">
            <mxPoint x="600" y="710" as="sourcePoint" />
            <mxPoint x="600" y="750" as="targetPoint" />
          </mxGeometry>
        </mxCell>
        <mxCell id="6z2ByxE4KpLMUv-SJOOG-30" value="Je genere la liste des tags" style="shape=hexagon;perimeter=hexagonPerimeter2;whiteSpace=wrap;html=1;fixedSize=1;" parent="1" vertex="1">
          <mxGeometry x="700" y="655" width="110" height="50" as="geometry" />
        </mxCell>
        <mxCell id="6z2ByxE4KpLMUv-SJOOG-31" value="Lorsque l&#39;utilisateur sélectionne un filtre" style="rounded=1;whiteSpace=wrap;html=1;" parent="1" vertex="1">
          <mxGeometry x="480" y="300" width="120" height="60" as="geometry" />
        </mxCell>
        <mxCell id="6z2ByxE4KpLMUv-SJOOG-32" value="Ecoute de l&#39;évènement Click&amp;nbsp;" style="rounded=1;whiteSpace=wrap;html=1;" parent="1" vertex="1">
          <mxGeometry x="480" y="430" width="120" height="60" as="geometry" />
        </mxCell>
        <mxCell id="6z2ByxE4KpLMUv-SJOOG-33" value="" style="endArrow=classic;html=1;rounded=0;entryX=0.561;entryY=-0.01;entryDx=0;entryDy=0;exitX=0;exitY=0.5;exitDx=0;exitDy=0;entryPerimeter=0;" parent="1" source="6z2ByxE4KpLMUv-SJOOG-32" target="6z2ByxE4KpLMUv-SJOOG-15" edge="1">
          <mxGeometry width="50" height="50" relative="1" as="geometry">
            <mxPoint x="360" y="485" as="sourcePoint" />
            <mxPoint x="430" y="550" as="targetPoint" />
            <Array as="points" />
          </mxGeometry>
        </mxCell>
        <mxCell id="6z2ByxE4KpLMUv-SJOOG-34" value="" style="endArrow=classic;html=1;rounded=0;entryX=0;entryY=0.5;entryDx=0;entryDy=0;exitX=1;exitY=0.5;exitDx=0;exitDy=0;" parent="1" source="6z2ByxE4KpLMUv-SJOOG-23" target="6z2ByxE4KpLMUv-SJOOG-30" edge="1">
          <mxGeometry width="50" height="50" relative="1" as="geometry">
            <mxPoint x="660" y="630" as="sourcePoint" />
            <mxPoint x="710" y="580" as="targetPoint" />
          </mxGeometry>
        </mxCell>
        <mxCell id="6z2ByxE4KpLMUv-SJOOG-35" value="Résultat final" style="shape=hexagon;perimeter=hexagonPerimeter2;whiteSpace=wrap;html=1;fixedSize=1;" parent="1" vertex="1">
          <mxGeometry x="360" y="850" width="120" height="80" as="geometry" />
        </mxCell>
        <mxCell id="6z2ByxE4KpLMUv-SJOOG-36" value="" style="endArrow=classic;html=1;rounded=0;entryX=0.91;entryY=0.245;entryDx=0;entryDy=0;entryPerimeter=0;exitX=0;exitY=1;exitDx=0;exitDy=0;" parent="1" source="6z2ByxE4KpLMUv-SJOOG-21" target="6z2ByxE4KpLMUv-SJOOG-35" edge="1">
          <mxGeometry width="50" height="50" relative="1" as="geometry">
            <mxPoint x="560" y="770" as="sourcePoint" />
            <mxPoint x="610" y="720" as="targetPoint" />
          </mxGeometry>
        </mxCell>
        <mxCell id="6z2ByxE4KpLMUv-SJOOG-37" value="" style="endArrow=classic;html=1;rounded=0;entryX=0;entryY=0.25;entryDx=0;entryDy=0;exitX=0.748;exitY=0.945;exitDx=0;exitDy=0;exitPerimeter=0;" parent="1" source="6z2ByxE4KpLMUv-SJOOG-20" target="6z2ByxE4KpLMUv-SJOOG-35" edge="1">
          <mxGeometry width="50" height="50" relative="1" as="geometry">
            <mxPoint x="560" y="770" as="sourcePoint" />
            <mxPoint x="610" y="720" as="targetPoint" />
          </mxGeometry>
        </mxCell>
        <mxCell id="6z2ByxE4KpLMUv-SJOOG-38" value="" style="endArrow=classic;html=1;rounded=0;exitX=0;exitY=0.5;exitDx=0;exitDy=0;entryX=1;entryY=0.5;entryDx=0;entryDy=0;" parent="1" source="6z2ByxE4KpLMUv-SJOOG-15" target="6z2ByxE4KpLMUv-SJOOG-39" edge="1">
          <mxGeometry width="50" height="50" relative="1" as="geometry">
            <mxPoint x="280" y="590" as="sourcePoint" />
            <mxPoint x="290" y="570" as="targetPoint" />
          </mxGeometry>
        </mxCell>
        <mxCell id="6z2ByxE4KpLMUv-SJOOG-39" value="Si le retour de SearchService est vide" style="rounded=1;whiteSpace=wrap;html=1;" parent="1" vertex="1">
          <mxGeometry x="190" y="540" width="120" height="60" as="geometry" />
        </mxCell>
        <mxCell id="6z2ByxE4KpLMUv-SJOOG-43" value="" style="endArrow=classic;html=1;rounded=0;" parent="1" edge="1">
          <mxGeometry relative="1" as="geometry">
            <mxPoint x="130" y="570" as="sourcePoint" />
            <mxPoint x="130" y="570" as="targetPoint" />
          </mxGeometry>
        </mxCell>
        <mxCell id="6z2ByxE4KpLMUv-SJOOG-49" value="Message d&#39;erreur" style="ellipse;shape=cloud;whiteSpace=wrap;html=1;" parent="1" vertex="1">
          <mxGeometry x="30" y="535" width="120" height="70" as="geometry" />
        </mxCell>
        <mxCell id="6z2ByxE4KpLMUv-SJOOG-50" value="" style="endArrow=classic;html=1;rounded=0;exitX=0;exitY=0.5;exitDx=0;exitDy=0;" parent="1" edge="1">
          <mxGeometry width="50" height="50" relative="1" as="geometry">
            <mxPoint x="190" y="569.71" as="sourcePoint" />
            <mxPoint x="140" y="570" as="targetPoint" />
          </mxGeometry>
        </mxCell>
        <mxCell id="-Jwmd_vRUEU-7GpoHb8O-1" value="&lt;font style=&quot;font-size: 24px;&quot;&gt;&lt;b&gt;&lt;u&gt;Algorigramme&lt;/u&gt;&lt;/b&gt;&lt;/font&gt;" style="text;html=1;align=center;verticalAlign=middle;whiteSpace=wrap;rounded=0;" vertex="1" parent="1">
          <mxGeometry x="324" y="60" width="180" height="30" as="geometry" />
        </mxCell>
      </root>
    </mxGraphModel>
  </diagram>
</mxfile>
